# xmcd
#
# Track frame offsets: 
#        150
#        18677
#        39885
#        53925
#        72305
#        90997
#        108348
#        126093
#        148917
#        178751
#        184688
#        203074
#        225961
#        242713
#
# Disc length: 3456 seconds
#
# Revision: 2
# Processed by: cddbd v1.5.2PL0 Copyright (c) Steve Scherf et al.
# Submitted via: ExactAudioCopy v0.99pb4
#
DISCID=bb0d7e0e
DTITLE=Electric Light Orchestra - On The Third Day [Bonus Tracks]
DYEAR=1973
DGENRE=Rock
TTITLE0=Ocean Breakup/King Of The Universe
TTITLE1=Bluebird Is Dead
TTITLE2=Oh No Not Susan
TTITLE3=New World Rising/Ocean Breakup [Reprise]
TTITLE4=Showdown
TTITLE5=Daybreaker
TTITLE6=Ma-Ma-Ma Belle
TTITLE7=Dreaming Of 4000
TTITLE8=In The Hall Of The Mountain King
TTITLE9=Auntie (Ma-Ma-Ma Belle) [Take 1]
TTITLE10=Auntie (Ma-Ma-Ma Belle) [Take 2]
TTITLE11=Mambo (Dreaming Of 4000) (Alternate Mix)
TTITLE12=Everyone's Born To Die
TTITLE13=Interludes
EXTD=
EXTT0=
EXTT1=
EXTT2=
EXTT3=
EXTT4=
EXTT5=
EXTT6=
EXTT7=
EXTT8=
EXTT9=
EXTT10=
EXTT11=
EXTT12=
EXTT13=
PLAYORDER=
